<svg width="118" height="111" viewBox="0 0 118 111" fill="none" xmlns="http://www.w3.org/2000/svg">
<path d="M84.7795 1.74805C82.0896 1.74805 79.5098 2.74489 77.6078 4.51928C75.7057 6.29366 74.6371 8.70025 74.6371 11.2096V110.126L68.4963 106.685L62.3463 110.126L56.1963 106.685L50.0556 110.126L43.9148 106.685L37.7556 110.126L31.6148 106.685L25.4648 110.126L19.3148 106.685L13.1648 110.126L7.00558 106.685L0.874023 110.126V11.2096C0.874023 8.70025 1.9426 6.29366 3.84467 4.51928C5.74674 2.74489 8.32651 1.74805 11.0164 1.74805H84.7795Z" fill="white"/>
<path d="M68.1794 100.512L74.2913 104.357V110.126L68.1794 106.28L62.0582 110.126L55.937 106.28L49.825 110.126L43.713 106.28L37.5919 110.126L31.4799 106.28L25.3587 110.126L19.2467 106.28L13.1255 110.126L6.99519 106.28L0.874023 110.126V104.357L6.99519 100.512L13.1255 104.357L19.2467 100.512L25.3587 104.357L31.4799 100.512L37.5919 104.357L43.713 100.512L49.825 104.357L55.937 100.512L62.0582 104.357L68.1794 100.512Z" fill="#EFEFEF"/>
<path d="M74.2913 41.5156V91.3355C70.7748 92.0239 67.1559 91.8968 63.692 90.9632C60.2281 90.0296 57.0045 88.3125 54.2506 85.934C51.4966 83.5556 49.2801 80.5743 47.7588 77.2024C46.2375 73.8306 45.4487 70.151 45.4487 66.4256C45.4487 62.7002 46.2375 59.0206 47.7588 55.6487C49.2801 52.2768 51.4966 49.2955 54.2506 46.9171C57.0045 44.5387 60.2281 42.8215 63.692 41.8879C67.1559 40.9543 70.7748 40.8272 74.2913 41.5156Z" fill="#EFEFEF"/>
<path d="M88.6076 77.5687L84.6968 81.4795L90.2306 87.0133L94.1414 83.1025L88.6076 77.5687Z" fill="white"/>
<path d="M69.9212 88.2759C83.4369 88.2759 94.3936 76.9279 94.3936 62.9295C94.3936 48.931 83.4369 37.583 69.9212 37.583C56.4054 37.583 45.4487 48.931 45.4487 62.9295C45.4487 76.9279 56.4054 88.2759 69.9212 88.2759Z" fill="#B5B5B5"/>
<path d="M87.1975 80.9726C71.3242 97.0973 44.2925 84.6202 45.487 62.0547C46.6273 83.1869 72.1115 93.5049 87.1613 78.2162C91.4478 73.9192 94.0114 68.1604 94.3559 62.0547C94.5473 65.5425 94.0083 69.0319 92.7744 72.2928C91.5405 75.5537 89.6398 78.5119 87.1975 80.9726Z" fill="#9B9B9B"/>
<path d="M110.592 110.123C110.888 110.123 111.182 110.065 111.455 109.951C111.729 109.838 111.977 109.671 112.186 109.461C116.633 105.015 117.118 104.801 117.118 103.598C117.118 103.302 117.06 103.009 116.946 102.735C116.833 102.462 116.666 102.213 116.456 102.004C95.9271 81.4794 97.0086 82.1599 95.6754 82.1599C95.3792 82.1596 95.0858 82.218 94.8122 82.3316C94.5386 82.4452 94.2902 82.6117 94.0812 82.8217C89.6342 87.2678 89.1494 87.4822 89.1494 88.6846C89.1492 88.9808 89.2076 89.2741 89.3212 89.5477C89.4348 89.8212 89.6014 90.0696 89.8113 90.2785C110.34 110.804 109.259 110.123 110.592 110.123Z" fill="#AD182D"/>
<path d="M69.9212 82.1579C80.5407 82.1579 89.1496 73.549 89.1496 62.9295C89.1496 52.31 80.5407 43.7012 69.9212 43.7012C59.3017 43.7012 50.6929 52.31 50.6929 62.9295C50.6929 73.549 59.3017 82.1579 69.9212 82.1579Z" fill="#23A9A2"/>
<path d="M89.0539 64.6775C87.5617 48.8882 67.9982 41.4033 56.326 52.9858C53.1619 56.1188 51.2021 60.2559 50.7874 64.6775C50.5065 61.8767 50.8534 59.0487 51.8032 56.3972C52.753 53.7457 54.282 51.3367 56.2802 49.3435C69.0876 36.6409 90.7659 46.9578 89.0539 64.6775Z" fill="#00928B"/>
<path d="M94.3939 10.9689V19.2284H74.2915V10.9689C74.2915 8.29158 75.3505 5.7239 77.2354 3.83075C79.1204 1.93759 81.6769 0.874023 84.3427 0.874023C87.0084 0.874023 89.565 1.93759 91.4499 3.83075C93.3349 5.7239 94.3939 8.29158 94.3939 10.9689Z" fill="#D3D3D3"/>
<path d="M54.9781 48.7277C42.0353 61.4103 51.3254 83.0319 69.4863 83.0319C87.6471 83.0319 96.9279 61.392 83.9945 48.7186C82.0898 46.8501 79.8279 45.3681 77.338 44.3571C74.8482 43.3462 72.1794 42.8263 69.4843 42.8271C66.7892 42.828 64.1208 43.3496 61.6316 44.3621C59.1425 45.3746 56.8815 46.8581 54.9781 48.7277ZM82.6527 75.846C80.0476 78.403 76.7271 80.1454 73.1111 80.8525C69.4952 81.5597 65.7465 81.1999 62.3393 79.8186C58.9322 78.4374 56.0197 76.0968 53.9705 73.093C51.9214 70.0893 50.8276 66.5574 50.8276 62.9443C50.8276 59.3312 51.9214 55.7992 53.9705 52.7955C56.0197 49.7917 58.9322 47.4511 62.3393 46.0699C65.7465 44.6886 69.4952 44.3288 73.1111 45.036C76.7271 45.7431 80.0476 47.4855 82.6527 50.0425C86.1407 53.4663 88.0997 58.1065 88.0997 62.9443C88.0997 67.7821 86.1407 72.4222 82.6527 75.846Z" fill="#131313"/>
<path d="M117.071 101.113L98.1178 82.155C97.6055 81.6657 96.9472 81.3576 96.2434 81.2777C95.5396 81.1978 94.829 81.3505 94.2202 81.7126L90.7648 78.2565C93.3499 74.7977 95.0258 70.7454 95.6391 66.4708C96.2524 62.1962 95.7834 57.836 94.2751 53.7897C92.7668 49.7434 90.2675 46.1404 87.006 43.3108C83.7446 40.4812 79.8254 38.5156 75.6075 37.5939V20.276H94.9573C95.2017 20.276 95.436 20.1789 95.6088 20.0061C95.7816 19.8332 95.8787 19.5988 95.8787 19.3544V11.0596C95.8787 8.12644 94.7138 5.31338 92.6402 3.23929C90.5666 1.16521 87.7542 0 84.8217 0H11.108C8.17546 0 5.36306 1.16521 3.28946 3.23929C1.21586 5.31338 0.0509245 8.12644 0.0509245 11.0596C0.0509245 124.246 -0.24393 110.246 0.585349 110.634C1.18427 110.919 1.09213 110.809 7.11822 107.196L12.7942 110.597C13.4392 110.984 13.2641 110.882 19.4192 107.196C25.3347 110.744 25.3808 110.984 26.0258 110.597L31.7017 107.196L37.3685 110.597C38.0043 110.975 37.82 110.892 43.9843 107.196C49.8998 110.744 49.9459 110.984 50.6001 110.597L56.2576 107.196L61.9336 110.597C62.5693 110.975 62.3851 110.892 68.5402 107.196C74.7045 110.882 74.511 110.965 75.1375 110.606C75.7641 110.246 75.6075 111.647 75.6075 88.0074C79.1981 87.2313 82.5795 85.6911 85.5219 83.4914L88.9681 86.9383C88.5875 87.5438 88.4249 88.2611 88.507 88.9716C88.5891 89.682 88.911 90.3433 89.4195 90.846L108.382 109.804C108.676 110.098 109.025 110.331 109.41 110.489C109.794 110.648 110.206 110.728 110.621 110.726C112.363 110.726 112.768 109.887 117.071 105.574C117.661 104.981 117.992 104.179 117.992 103.343C117.992 102.507 117.661 101.705 117.071 101.113ZM94.0359 62.8006C94.0359 67.54 92.6308 72.1729 89.9984 76.1135C87.366 80.0541 83.6244 83.1255 79.2468 84.9391C74.8693 86.7528 70.0523 87.2274 65.4052 86.3028C60.758 85.3782 56.4892 83.0959 53.1388 79.7447C49.7884 76.3935 47.5067 72.1238 46.5823 67.4755C45.6579 62.8272 46.1323 58.0092 47.9456 53.6306C49.7588 49.252 52.8295 45.5095 56.7692 42.8765C60.7089 40.2435 65.3407 38.8381 70.0789 38.8381C76.4327 38.8381 82.5262 41.3627 87.019 45.8566C91.5118 50.3504 94.0359 56.4454 94.0359 62.8006ZM94.0359 11.0596V18.4327H75.6075V11.0596C75.6075 8.61531 76.5782 6.27109 78.3062 4.54268C80.0342 2.81428 82.3779 1.84327 84.8217 1.84327C87.2654 1.84327 89.6091 2.81428 91.3371 4.54268C93.0651 6.27109 94.0359 8.61531 94.0359 11.0596ZM73.7646 108.173C68.6599 105.113 68.706 104.947 68.0702 105.325L62.4035 108.726L56.7367 105.325C56.0918 104.947 56.2392 105.058 50.1209 108.726C44.2054 105.177 44.1593 104.938 43.5051 105.325L37.8292 108.726L32.1624 105.325C31.5267 104.947 31.7017 105.03 25.5466 108.726C19.6311 105.177 19.585 104.938 18.9308 105.325L13.2641 108.726L7.58815 105.325C6.95237 104.947 7.02608 105.095 1.88455 108.182V11.0596C1.88455 9.84855 2.12319 8.64934 2.58682 7.53056C3.05046 6.41178 3.72999 5.39536 4.58659 4.53942C5.44318 3.68348 6.46004 3.0048 7.57902 2.54218C8.698 2.07956 9.89717 1.84206 11.108 1.84327C81.9007 1.84327 78.7771 1.84327 78.685 1.84327C77.3608 2.73712 76.2437 3.90475 75.4092 5.26732C74.5747 6.62988 74.0421 8.15568 73.8475 9.7417C73.8475 16.0397 73.8475 10.8656 73.7646 37.2529C69.7928 36.6776 65.7416 37.037 61.9331 38.3025C58.1245 39.5681 54.6636 41.7049 51.8256 44.543C34.3831 61.9804 49.1811 91.8691 73.7646 88.3484V108.173ZM89.5762 79.7219L92.8196 82.966L90.2396 85.5466L86.9962 82.3025C87.9217 81.5104 88.7843 80.6476 89.5762 79.7219ZM111.543 108.486C111.297 108.727 110.966 108.862 110.621 108.862C110.277 108.862 109.946 108.727 109.7 108.486C88.9588 87.7309 90.3502 89.3622 90.3502 88.6065C90.3502 87.8507 90.4423 87.9798 94.9573 83.4729C95.0774 83.3503 95.2208 83.2529 95.379 83.1864C95.5372 83.1199 95.7071 83.0857 95.8787 83.0857C96.0503 83.0857 96.2202 83.1199 96.3784 83.1864C96.5367 83.2529 96.68 83.3503 96.8001 83.4729C117.541 104.274 116.15 102.597 116.15 103.353C116.15 104.108 116.15 103.915 111.543 108.486Z" fill="#131313"/>
<rect x="13.9844" y="27.0947" width="47.1968" height="3.49606" fill="#AD182D"/>
<rect x="13.9844" y="36.709" width="23.5984" height="3.49606" fill="#AD182D"/>
<rect x="13.9844" y="46.3232" width="23.5984" height="3.49606" fill="#AD182D"/>
</svg>
